<?xml version="1.0" encoding="UTF-8"?>
<svg xmlns="http://www.w3.org/2000/svg" xmlns:xlink="http://www.w3.org/1999/xlink" width="24px" height="23px" viewBox="0 0 24 23" version="1.1">
<g id="surface1">
<path style=" stroke:none;fill-rule:evenodd;fill:rgb(1.568627%,1.568627%,1.568627%);fill-opacity:1;" d="M 11.09375 0.0078125 C 4.394531 0.320312 -0.605469 4.898438 0.0507812 10.125 C 0.53125 13.964844 4.003906 17.152344 8.78125 18.136719 L 9.101562 18.203125 L 6.867188 20.300781 C 5.636719 21.453125 4.609375 22.421875 4.585938 22.449219 C 4.425781 22.625 4.546875 22.890625 4.78125 22.871094 C 4.847656 22.863281 4.949219 22.820312 5.632812 22.496094 C 6.058594 22.292969 6.4375 22.113281 6.476562 22.097656 L 6.542969 22.066406 L 6.464844 22.140625 C 5.964844 22.605469 5.53125 23.019531 5.539062 23.023438 C 5.542969 23.023438 7.792969 21.960938 10.539062 20.660156 C 15.246094 18.429688 15.53125 18.296875 15.59375 18.296875 C 15.652344 18.296875 15.664062 18.292969 15.664062 18.273438 C 15.664062 18.257812 15.671875 18.246094 15.691406 18.242188 C 19.902344 17.304688 22.9375 14.730469 23.78125 11.378906 C 24.332031 9.179688 23.851562 6.960938 22.402344 5.050781 C 21.808594 4.269531 20.582031 3.082031 19.707031 2.445312 C 17.402344 0.765625 14.207031 -0.136719 11.09375 0.0078125 M 12.300781 0.503906 C 19.695312 0.839844 24.648438 6.367188 22.464844 11.847656 C 21.429688 14.449219 19.039062 16.410156 15.738281 17.371094 C 15.320312 17.492188 14.894531 17.59375 14.753906 17.605469 C 14.617188 17.613281 14.523438 17.65625 14.464844 17.734375 C 14.449219 17.761719 6.714844 21.441406 6.148438 21.695312 L 6.082031 21.726562 L 6.132812 21.675781 C 6.332031 21.476562 9.722656 18.308594 9.773438 18.273438 C 9.945312 18.15625 9.9375 17.90625 9.761719 17.824219 C 9.726562 17.804688 9.609375 17.78125 9.457031 17.753906 C 2.816406 16.671875 -1.097656 11.34375 1.101562 6.378906 C 2.546875 3.117188 6.355469 0.820312 10.800781 0.523438 C 11.28125 0.492188 11.847656 0.484375 12.300781 0.503906 M 15.5625 18.265625 C 15.546875 18.273438 15.511719 18.28125 15.488281 18.28125 L 15.445312 18.28125 L 15.480469 18.265625 C 15.5 18.253906 15.535156 18.246094 15.554688 18.246094 L 15.59375 18.246094 L 15.5625 18.265625 "/>
<path style=" stroke:none;fill-rule:evenodd;fill:rgb(98.431373%,98.431373%,98.431373%);fill-opacity:1;" d="M 11.09375 0.511719 C 11.058594 0.515625 10.925781 0.523438 10.800781 0.53125 C 6.269531 0.796875 2.285156 3.300781 0.972656 6.707031 C -0.90625 11.589844 2.957031 16.65625 9.378906 17.734375 C 9.5625 17.765625 9.730469 17.800781 9.753906 17.808594 C 9.945312 17.894531 9.953125 18.167969 9.773438 18.285156 C 9.730469 18.308594 7.132812 20.734375 6.105469 21.703125 C 6.085938 21.722656 6.023438 21.75 10.332031 19.710938 C 13.679688 18.121094 14.441406 17.757812 14.480469 17.71875 C 14.582031 17.621094 14.664062 17.589844 14.8125 17.589844 C 14.875 17.589844 15.402344 17.460938 15.71875 17.371094 C 19.464844 16.277344 22.011719 13.929688 22.773438 10.863281 C 24.011719 5.875 19.488281 1.121094 12.972656 0.554688 C 12.46875 0.511719 11.496094 0.488281 11.09375 0.511719 "/>
<path style=" stroke:none;fill-rule:evenodd;fill:rgb(63.137255%,63.137255%,63.137255%);fill-opacity:1;" d="M 11.539062 0.5 C 11.648438 0.503906 11.824219 0.503906 11.933594 0.5 C 12.042969 0.5 11.953125 0.496094 11.738281 0.496094 C 11.519531 0.496094 11.433594 0.5 11.539062 0.5 M 11.023438 0.511719 C 11.042969 0.515625 11.082031 0.515625 11.109375 0.511719 C 11.136719 0.511719 11.117188 0.507812 11.070312 0.507812 C 11.019531 0.507812 11 0.511719 11.023438 0.511719 M 12.308594 0.511719 C 12.332031 0.515625 12.367188 0.515625 12.382812 0.511719 C 12.402344 0.511719 12.386719 0.507812 12.34375 0.507812 C 12.300781 0.507812 12.289062 0.511719 12.308594 0.511719 M 10.820312 0.527344 C 10.835938 0.527344 10.859375 0.527344 10.871094 0.527344 C 10.882812 0.523438 10.871094 0.519531 10.84375 0.519531 C 10.816406 0.519531 10.804688 0.523438 10.820312 0.527344 M 12.597656 0.527344 C 12.613281 0.527344 12.636719 0.527344 12.648438 0.527344 C 12.660156 0.523438 12.644531 0.519531 12.617188 0.519531 C 12.589844 0.519531 12.582031 0.523438 12.597656 0.527344 M 10.632812 0.539062 C 10.648438 0.542969 10.671875 0.542969 10.683594 0.539062 C 10.695312 0.535156 10.683594 0.53125 10.65625 0.53125 C 10.628906 0.53125 10.617188 0.535156 10.632812 0.539062 M 12.765625 0.539062 C 12.777344 0.542969 12.796875 0.542969 12.808594 0.539062 C 12.820312 0.535156 12.8125 0.53125 12.789062 0.53125 C 12.761719 0.53125 12.753906 0.535156 12.765625 0.539062 M 12.914062 0.550781 C 12.925781 0.554688 12.949219 0.554688 12.960938 0.550781 C 12.972656 0.546875 12.960938 0.546875 12.9375 0.546875 C 12.914062 0.546875 12.902344 0.546875 12.914062 0.550781 M 13.066406 0.5625 C 13.078125 0.566406 13.097656 0.566406 13.109375 0.5625 C 13.121094 0.558594 13.113281 0.558594 13.085938 0.558594 C 13.0625 0.558594 13.054688 0.558594 13.066406 0.5625 M 3.03125 3.699219 L 2.957031 3.777344 L 3.035156 3.703125 C 3.105469 3.632812 3.117188 3.617188 3.109375 3.617188 C 3.105469 3.617188 3.070312 3.65625 3.03125 3.699219 M 20.648438 3.914062 C 20.730469 3.996094 20.796875 4.058594 20.800781 4.058594 C 20.804688 4.058594 20.742188 3.996094 20.664062 3.914062 C 20.582031 3.835938 20.515625 3.769531 20.511719 3.769531 C 20.507812 3.769531 20.570312 3.835938 20.648438 3.914062 M 2.605469 4.125 L 2.53125 4.207031 L 2.609375 4.128906 C 2.683594 4.058594 2.691406 4.046875 2.683594 4.046875 C 2.683594 4.046875 2.648438 4.082031 2.605469 4.125 M 20.925781 4.203125 C 20.976562 4.257812 20.988281 4.269531 20.988281 4.257812 C 20.988281 4.257812 20.960938 4.230469 20.929688 4.199219 L 20.867188 4.140625 L 20.925781 4.203125 M 0.515625 8.613281 C 0.515625 8.636719 0.519531 8.648438 0.519531 8.632812 C 0.523438 8.621094 0.523438 8.601562 0.519531 8.589844 C 0.519531 8.578125 0.515625 8.589844 0.515625 8.613281 M 22.953125 8.613281 C 22.953125 8.636719 22.957031 8.648438 22.957031 8.632812 C 22.960938 8.621094 22.960938 8.601562 22.957031 8.589844 C 22.957031 8.578125 22.953125 8.589844 22.953125 8.613281 M 0.503906 8.769531 C 0.503906 8.796875 0.507812 8.808594 0.507812 8.792969 C 0.511719 8.777344 0.511719 8.753906 0.507812 8.742188 C 0.503906 8.730469 0.503906 8.742188 0.503906 8.769531 M 22.964844 8.777344 C 22.964844 8.800781 22.96875 8.808594 22.972656 8.796875 C 22.972656 8.785156 22.972656 8.765625 22.972656 8.753906 C 22.96875 8.742188 22.964844 8.753906 22.964844 8.777344 M 0.492188 9.042969 C 0.492188 9.105469 0.492188 9.132812 0.496094 9.101562 C 0.5 9.066406 0.5 9.015625 0.496094 8.980469 C 0.492188 8.949219 0.492188 8.976562 0.492188 9.042969 M 22.980469 9.21875 C 22.980469 9.351562 22.980469 9.410156 22.984375 9.339844 C 22.988281 9.273438 22.988281 9.164062 22.984375 9.09375 C 22.980469 9.027344 22.980469 9.082031 22.980469 9.21875 M 0.492188 9.367188 C 0.492188 9.449219 0.496094 9.480469 0.496094 9.441406 C 0.5 9.402344 0.5 9.335938 0.496094 9.296875 C 0.496094 9.257812 0.492188 9.289062 0.492188 9.367188 M 22.964844 9.632812 C 22.964844 9.664062 22.96875 9.675781 22.972656 9.664062 C 22.972656 9.648438 22.972656 9.621094 22.972656 9.605469 C 22.96875 9.589844 22.964844 9.601562 22.964844 9.632812 M 0.503906 9.679688 C 0.503906 9.707031 0.507812 9.714844 0.507812 9.699219 C 0.511719 9.683594 0.511719 9.660156 0.507812 9.648438 C 0.503906 9.636719 0.503906 9.648438 0.503906 9.679688 M 22.953125 9.796875 C 22.953125 9.820312 22.957031 9.832031 22.957031 9.820312 C 22.960938 9.808594 22.960938 9.789062 22.957031 9.777344 C 22.957031 9.761719 22.953125 9.773438 22.953125 9.796875 M 21.003906 14.203125 L 20.96875 14.242188 L 21.007812 14.207031 C 21.046875 14.171875 21.054688 14.160156 21.046875 14.160156 C 21.042969 14.160156 21.027344 14.179688 21.003906 14.203125 M 2.535156 14.226562 C 2.566406 14.257812 2.59375 14.285156 2.597656 14.285156 C 2.605469 14.285156 2.597656 14.277344 2.539062 14.222656 L 2.480469 14.167969 L 2.535156 14.226562 M 20.878906 14.339844 L 20.84375 14.382812 L 20.882812 14.34375 C 20.921875 14.308594 20.929688 14.300781 20.921875 14.300781 C 20.917969 14.300781 20.902344 14.316406 20.878906 14.339844 M 2.8125 14.519531 C 2.890625 14.601562 2.957031 14.664062 2.960938 14.664062 C 2.964844 14.664062 2.902344 14.601562 2.824219 14.519531 C 2.746094 14.441406 2.679688 14.375 2.675781 14.375 C 2.671875 14.375 2.734375 14.441406 2.8125 14.519531 M 20.417969 14.808594 L 20.355469 14.875 L 20.421875 14.808594 C 20.457031 14.777344 20.488281 14.746094 20.488281 14.746094 C 20.488281 14.734375 20.476562 14.746094 20.417969 14.808594 M 14.753906 17.597656 C 14.773438 17.601562 14.804688 17.601562 14.820312 17.597656 C 14.839844 17.597656 14.824219 17.59375 14.789062 17.59375 C 14.75 17.59375 14.734375 17.597656 14.753906 17.597656 M 9.566406 18.449219 L 9.519531 18.503906 L 9.570312 18.453125 C 9.601562 18.425781 9.625 18.402344 9.625 18.402344 C 9.625 18.390625 9.613281 18.402344 9.566406 18.449219 M 9.394531 18.613281 L 9.34375 18.667969 L 9.398438 18.617188 C 9.445312 18.574219 9.457031 18.5625 9.445312 18.5625 C 9.445312 18.5625 9.421875 18.585938 9.394531 18.613281 M 9.21875 18.777344 L 9.167969 18.832031 L 9.222656 18.78125 C 9.269531 18.734375 9.28125 18.726562 9.269531 18.726562 C 9.269531 18.726562 9.246094 18.75 9.21875 18.777344 M 9.03125 18.957031 L 8.980469 19.007812 L 9.035156 18.960938 C 9.082031 18.914062 9.09375 18.902344 9.082031 18.902344 C 9.082031 18.902344 9.058594 18.925781 9.03125 18.957031 M 8.855469 19.121094 L 8.804688 19.171875 L 8.859375 19.125 C 8.910156 19.078125 8.917969 19.066406 8.910156 19.066406 C 8.90625 19.066406 8.882812 19.089844 8.855469 19.121094 M 8.679688 19.285156 L 8.632812 19.335938 L 8.683594 19.285156 C 8.714844 19.257812 8.738281 19.234375 8.738281 19.234375 C 8.738281 19.222656 8.726562 19.234375 8.679688 19.285156 M 8.492188 19.460938 L 8.445312 19.511719 L 8.496094 19.464844 C 8.527344 19.4375 8.550781 19.410156 8.550781 19.410156 C 8.550781 19.402344 8.539062 19.410156 8.492188 19.460938 M 8.316406 19.625 L 8.269531 19.675781 L 8.320312 19.628906 C 8.351562 19.601562 8.375 19.574219 8.375 19.574219 C 8.375 19.5625 8.363281 19.574219 8.316406 19.625 M 8.144531 19.789062 L 8.09375 19.839844 L 8.148438 19.792969 C 8.195312 19.746094 8.207031 19.734375 8.195312 19.734375 C 8.195312 19.734375 8.171875 19.757812 8.144531 19.789062 M 7.957031 19.964844 L 7.90625 20.019531 L 7.960938 19.96875 C 8.007812 19.921875 8.019531 19.910156 8.007812 19.910156 C 8.007812 19.910156 7.984375 19.933594 7.957031 19.964844 M 7.78125 20.128906 L 7.730469 20.183594 L 7.785156 20.132812 C 7.832031 20.085938 7.84375 20.074219 7.832031 20.074219 C 7.832031 20.074219 7.808594 20.097656 7.78125 20.128906 M 7.605469 20.292969 L 7.554688 20.34375 L 7.609375 20.296875 C 7.660156 20.25 7.667969 20.238281 7.660156 20.238281 C 7.65625 20.238281 7.632812 20.261719 7.605469 20.292969 M 7.425781 20.460938 L 7.382812 20.507812 L 7.429688 20.464844 C 7.472656 20.425781 7.480469 20.414062 7.472656 20.414062 C 7.46875 20.414062 7.449219 20.4375 7.425781 20.460938 M 7.242188 20.632812 L 7.195312 20.6875 L 7.246094 20.636719 C 7.296875 20.589844 7.304688 20.578125 7.296875 20.578125 C 7.292969 20.578125 7.269531 20.601562 7.242188 20.632812 M 7.066406 20.796875 L 7.019531 20.851562 L 7.070312 20.800781 C 7.121094 20.753906 7.128906 20.742188 7.121094 20.742188 C 7.121094 20.742188 7.09375 20.765625 7.066406 20.796875 M 6.886719 20.964844 L 6.84375 21.015625 L 6.890625 20.96875 C 6.933594 20.929688 6.941406 20.917969 6.933594 20.917969 C 6.929688 20.917969 6.910156 20.941406 6.886719 20.964844 M 6.707031 21.136719 L 6.65625 21.191406 L 6.710938 21.140625 C 6.757812 21.09375 6.769531 21.082031 6.757812 21.082031 C 6.757812 21.082031 6.734375 21.109375 6.707031 21.136719 M 6.53125 21.300781 L 6.480469 21.355469 L 6.535156 21.304688 C 6.582031 21.257812 6.59375 21.246094 6.582031 21.246094 C 6.582031 21.246094 6.558594 21.269531 6.53125 21.300781 M 6.347656 21.472656 L 6.304688 21.519531 L 6.351562 21.476562 C 6.398438 21.433594 6.40625 21.421875 6.394531 21.421875 C 6.394531 21.421875 6.371094 21.445312 6.347656 21.472656 M 6.171875 21.636719 C 6.132812 21.671875 6.125 21.6875 6.140625 21.695312 C 6.148438 21.699219 6.152344 21.699219 6.148438 21.695312 C 6.140625 21.6875 6.15625 21.664062 6.183594 21.636719 C 6.210938 21.609375 6.226562 21.585938 6.222656 21.585938 C 6.21875 21.585938 6.195312 21.609375 6.171875 21.636719 "/>
</g>
</svg>
