<?xml version="1.0" encoding="UTF-8"?>
<svg xmlns="http://www.w3.org/2000/svg" xmlns:xlink="http://www.w3.org/1999/xlink" width="32px" height="30px" viewBox="0 0 31 30" version="1.1">
<g id="surface1">
<path style=" stroke:none;fill-rule:evenodd;fill:rgb(1.568627%,1.568627%,1.568627%);fill-opacity:1;" d="M 14.328125 0.0117188 C 5.675781 0.417969 -0.78125 6.390625 0.0664062 13.207031 C 0.6875 18.21875 5.171875 22.371094 11.339844 23.660156 L 11.757812 23.746094 L 8.871094 26.480469 C 7.28125 27.984375 5.957031 29.242188 5.921875 29.28125 C 5.71875 29.511719 5.875 29.855469 6.175781 29.832031 C 6.261719 29.824219 6.390625 29.765625 7.273438 29.339844 C 7.824219 29.078125 8.316406 28.84375 8.363281 28.820312 L 8.453125 28.78125 L 8.351562 28.878906 C 7.703125 29.484375 7.144531 30.027344 7.152344 30.03125 C 7.160156 30.03125 10.066406 28.648438 13.609375 26.949219 C 19.695312 24.039062 20.0625 23.863281 20.144531 23.863281 C 20.21875 23.863281 20.230469 23.859375 20.230469 23.832031 C 20.230469 23.8125 20.246094 23.796875 20.265625 23.792969 C 25.707031 22.570312 29.625 19.214844 30.714844 14.84375 C 31.429688 11.972656 30.808594 9.082031 28.9375 6.585938 C 28.171875 5.570312 26.585938 4.019531 25.453125 3.1875 C 22.480469 1 18.351562 -0.179688 14.328125 0.0117188 M 15.886719 0.660156 C 25.4375 1.09375 31.835938 8.304688 29.015625 15.453125 C 27.679688 18.84375 24.589844 21.40625 20.328125 22.65625 C 19.789062 22.8125 19.238281 22.945312 19.054688 22.960938 C 18.878906 22.976562 18.757812 23.03125 18.683594 23.132812 C 18.664062 23.164062 8.675781 27.96875 7.945312 28.300781 L 7.855469 28.339844 L 7.917969 28.273438 C 8.179688 28.011719 12.554688 23.882812 12.625 23.835938 C 12.84375 23.683594 12.835938 23.355469 12.609375 23.246094 C 12.566406 23.226562 12.410156 23.191406 12.214844 23.160156 C 3.636719 21.75 -1.417969 14.796875 1.425781 8.324219 C 3.292969 4.066406 8.207031 1.070312 13.949219 0.683594 C 14.570312 0.640625 15.304688 0.632812 15.886719 0.660156 M 20.101562 23.824219 C 20.078125 23.835938 20.035156 23.847656 20.003906 23.847656 L 19.949219 23.847656 L 19.996094 23.824219 C 20.023438 23.8125 20.066406 23.800781 20.09375 23.800781 L 20.140625 23.800781 L 20.101562 23.824219 "/>
<path style=" stroke:none;fill-rule:evenodd;fill:rgb(98.431373%,98.431373%,98.431373%);fill-opacity:1;" d="M 14.328125 0.667969 C 14.285156 0.671875 14.113281 0.679688 13.949219 0.691406 C 8.097656 1.039062 2.953125 4.304688 1.257812 8.75 C -1.171875 15.117188 3.816406 21.726562 12.113281 23.132812 C 12.351562 23.175781 12.570312 23.21875 12.597656 23.230469 C 12.84375 23.339844 12.859375 23.695312 12.621094 23.847656 C 12.570312 23.882812 9.210938 27.046875 7.886719 28.308594 C 7.863281 28.332031 7.78125 28.371094 13.34375 25.707031 C 17.671875 23.636719 18.652344 23.160156 18.703125 23.109375 C 18.832031 22.984375 18.941406 22.945312 19.132812 22.945312 C 19.210938 22.945312 19.894531 22.777344 20.304688 22.65625 C 25.140625 21.234375 28.433594 18.167969 29.414062 14.167969 C 31.015625 7.664062 25.175781 1.460938 16.757812 0.722656 C 16.105469 0.667969 14.847656 0.636719 14.328125 0.667969 "/>
<path style=" stroke:none;fill-rule:evenodd;fill:rgb(63.137255%,63.137255%,63.137255%);fill-opacity:1;" d="M 14.90625 0.652344 C 15.046875 0.65625 15.277344 0.65625 15.414062 0.652344 C 15.554688 0.652344 15.441406 0.648438 15.160156 0.648438 C 14.882812 0.648438 14.765625 0.652344 14.90625 0.652344 M 14.234375 0.667969 C 14.265625 0.671875 14.316406 0.671875 14.347656 0.667969 C 14.382812 0.667969 14.359375 0.664062 14.296875 0.664062 C 14.234375 0.664062 14.207031 0.667969 14.234375 0.667969 M 15.898438 0.667969 C 15.929688 0.671875 15.972656 0.671875 15.996094 0.667969 C 16.019531 0.664062 15.996094 0.664062 15.945312 0.664062 C 15.890625 0.664062 15.871094 0.667969 15.898438 0.667969 M 13.976562 0.6875 C 14 0.691406 14.027344 0.691406 14.042969 0.6875 C 14.058594 0.679688 14.042969 0.679688 14.007812 0.679688 C 13.972656 0.679688 13.957031 0.683594 13.976562 0.6875 M 16.269531 0.6875 C 16.292969 0.691406 16.320312 0.691406 16.335938 0.6875 C 16.351562 0.679688 16.335938 0.679688 16.300781 0.679688 C 16.265625 0.679688 16.25 0.683594 16.269531 0.6875 M 13.734375 0.703125 C 13.757812 0.707031 13.785156 0.707031 13.800781 0.703125 C 13.816406 0.699219 13.800781 0.695312 13.765625 0.695312 C 13.730469 0.695312 13.714844 0.699219 13.734375 0.703125 M 16.488281 0.703125 C 16.503906 0.707031 16.53125 0.707031 16.546875 0.703125 C 16.5625 0.699219 16.546875 0.695312 16.515625 0.695312 C 16.484375 0.695312 16.472656 0.699219 16.488281 0.703125 M 16.683594 0.71875 C 16.699219 0.722656 16.722656 0.722656 16.738281 0.71875 C 16.753906 0.714844 16.742188 0.710938 16.710938 0.710938 C 16.679688 0.710938 16.667969 0.714844 16.683594 0.71875 M 16.875 0.734375 C 16.890625 0.738281 16.917969 0.738281 16.933594 0.734375 C 16.949219 0.730469 16.9375 0.726562 16.90625 0.726562 C 16.875 0.726562 16.859375 0.730469 16.875 0.734375 M 3.914062 4.824219 L 3.820312 4.925781 L 3.917969 4.828125 C 4.011719 4.738281 4.027344 4.71875 4.015625 4.71875 C 4.011719 4.71875 3.96875 4.765625 3.914062 4.824219 M 26.671875 5.105469 C 26.773438 5.210938 26.863281 5.296875 26.867188 5.296875 C 26.871094 5.296875 26.789062 5.210938 26.6875 5.105469 C 26.585938 5.003906 26.5 4.917969 26.496094 4.917969 C 26.492188 4.917969 26.570312 5.003906 26.671875 5.105469 M 3.367188 5.382812 L 3.269531 5.484375 L 3.371094 5.386719 C 3.464844 5.296875 3.480469 5.28125 3.46875 5.28125 C 3.464844 5.28125 3.417969 5.324219 3.367188 5.382812 M 27.027344 5.480469 C 27.09375 5.554688 27.109375 5.566406 27.109375 5.554688 C 27.109375 5.550781 27.074219 5.515625 27.03125 5.476562 L 26.957031 5.402344 L 27.027344 5.480469 M 0.664062 11.234375 C 0.664062 11.265625 0.667969 11.277344 0.671875 11.261719 C 0.675781 11.246094 0.675781 11.21875 0.671875 11.203125 C 0.667969 11.1875 0.664062 11.203125 0.664062 11.234375 M 29.648438 11.234375 C 29.648438 11.265625 29.652344 11.277344 29.65625 11.261719 C 29.660156 11.246094 29.660156 11.21875 29.65625 11.203125 C 29.652344 11.1875 29.648438 11.203125 29.648438 11.234375 M 0.648438 11.4375 C 0.648438 11.476562 0.652344 11.488281 0.65625 11.46875 C 0.660156 11.449219 0.660156 11.417969 0.65625 11.402344 C 0.652344 11.386719 0.648438 11.402344 0.648438 11.4375 M 29.664062 11.449219 C 29.664062 11.480469 29.667969 11.492188 29.671875 11.476562 C 29.675781 11.460938 29.675781 11.433594 29.671875 11.417969 C 29.667969 11.402344 29.664062 11.414062 29.664062 11.449219 M 0.636719 11.792969 C 0.636719 11.878906 0.636719 11.914062 0.640625 11.871094 C 0.644531 11.828125 0.644531 11.757812 0.640625 11.714844 C 0.636719 11.671875 0.636719 11.707031 0.636719 11.792969 M 29.683594 12.023438 C 29.683594 12.199219 29.683594 12.273438 29.6875 12.183594 C 29.691406 12.09375 29.691406 11.949219 29.6875 11.863281 C 29.683594 11.773438 29.683594 11.847656 29.683594 12.023438 M 0.636719 12.21875 C 0.636719 12.324219 0.636719 12.367188 0.640625 12.316406 C 0.644531 12.261719 0.644531 12.179688 0.640625 12.125 C 0.636719 12.074219 0.636719 12.117188 0.636719 12.21875 M 29.664062 12.566406 C 29.664062 12.605469 29.667969 12.625 29.671875 12.601562 C 29.675781 12.582031 29.675781 12.550781 29.671875 12.527344 C 29.667969 12.507812 29.664062 12.523438 29.664062 12.566406 M 0.648438 12.625 C 0.648438 12.660156 0.652344 12.671875 0.65625 12.652344 C 0.660156 12.632812 0.660156 12.601562 0.65625 12.585938 C 0.652344 12.570312 0.648438 12.585938 0.648438 12.625 M 29.648438 12.78125 C 29.648438 12.8125 29.652344 12.824219 29.65625 12.808594 C 29.660156 12.792969 29.660156 12.765625 29.65625 12.75 C 29.652344 12.734375 29.648438 12.746094 29.648438 12.78125 M 27.132812 18.523438 L 27.085938 18.578125 L 27.136719 18.527344 C 27.1875 18.484375 27.195312 18.46875 27.183594 18.46875 C 27.183594 18.46875 27.15625 18.496094 27.132812 18.523438 M 3.277344 18.558594 C 3.316406 18.601562 3.351562 18.636719 3.355469 18.636719 C 3.367188 18.636719 3.351562 18.621094 3.28125 18.550781 L 3.203125 18.480469 L 3.277344 18.558594 M 26.96875 18.703125 L 26.921875 18.757812 L 26.976562 18.710938 C 27.023438 18.664062 27.035156 18.652344 27.023438 18.652344 C 27.019531 18.652344 26.996094 18.675781 26.96875 18.703125 M 3.632812 18.9375 C 3.734375 19.042969 3.820312 19.128906 3.824219 19.128906 C 3.832031 19.128906 3.75 19.042969 3.648438 18.9375 C 3.546875 18.835938 3.460938 18.75 3.457031 18.75 C 3.453125 18.75 3.53125 18.835938 3.632812 18.9375 M 26.375 19.3125 L 26.292969 19.398438 L 26.378906 19.316406 C 26.425781 19.273438 26.464844 19.234375 26.464844 19.230469 C 26.464844 19.21875 26.449219 19.234375 26.375 19.3125 M 19.054688 22.957031 C 19.082031 22.960938 19.121094 22.960938 19.144531 22.957031 C 19.167969 22.953125 19.148438 22.949219 19.101562 22.949219 C 19.050781 22.949219 19.03125 22.953125 19.054688 22.957031 M 12.359375 24.066406 L 12.296875 24.136719 L 12.363281 24.070312 C 12.402344 24.035156 12.433594 24.003906 12.433594 24 C 12.433594 23.988281 12.417969 24 12.359375 24.066406 M 12.132812 24.28125 L 12.070312 24.351562 L 12.136719 24.285156 C 12.203125 24.226562 12.214844 24.210938 12.203125 24.210938 C 12.199219 24.210938 12.167969 24.242188 12.132812 24.28125 M 11.90625 24.496094 L 11.84375 24.5625 L 11.910156 24.5 C 11.976562 24.4375 11.988281 24.425781 11.976562 24.425781 C 11.972656 24.425781 11.941406 24.457031 11.90625 24.496094 M 11.664062 24.722656 L 11.601562 24.792969 L 11.667969 24.730469 C 11.734375 24.667969 11.746094 24.65625 11.734375 24.65625 C 11.730469 24.65625 11.699219 24.6875 11.664062 24.722656 M 11.4375 24.9375 L 11.375 25.007812 L 11.441406 24.941406 C 11.507812 24.882812 11.519531 24.867188 11.507812 24.867188 C 11.503906 24.867188 11.472656 24.898438 11.4375 24.9375 M 11.210938 25.152344 L 11.148438 25.222656 L 11.21875 25.15625 C 11.253906 25.121094 11.285156 25.089844 11.285156 25.085938 C 11.285156 25.074219 11.273438 25.085938 11.210938 25.152344 M 10.96875 25.382812 L 10.90625 25.453125 L 10.976562 25.386719 C 11.011719 25.351562 11.042969 25.320312 11.042969 25.316406 C 11.042969 25.304688 11.03125 25.316406 10.96875 25.382812 M 10.746094 25.597656 L 10.679688 25.667969 L 10.75 25.601562 C 10.785156 25.566406 10.816406 25.535156 10.816406 25.53125 C 10.816406 25.519531 10.804688 25.53125 10.746094 25.597656 M 10.519531 25.808594 L 10.453125 25.878906 L 10.523438 25.816406 C 10.585938 25.753906 10.597656 25.738281 10.585938 25.738281 C 10.585938 25.738281 10.554688 25.773438 10.519531 25.808594 M 10.277344 26.039062 L 10.210938 26.109375 L 10.28125 26.046875 C 10.34375 25.984375 10.355469 25.96875 10.34375 25.96875 C 10.34375 25.96875 10.3125 26 10.277344 26.039062 M 10.050781 26.253906 L 9.984375 26.324219 L 10.054688 26.257812 C 10.117188 26.199219 10.132812 26.183594 10.117188 26.183594 C 10.117188 26.183594 10.085938 26.214844 10.050781 26.253906 M 9.824219 26.46875 L 9.761719 26.539062 L 9.828125 26.472656 C 9.890625 26.414062 9.90625 26.398438 9.890625 26.398438 C 9.890625 26.398438 9.859375 26.429688 9.824219 26.46875 M 9.589844 26.691406 L 9.535156 26.75 L 9.59375 26.695312 C 9.652344 26.640625 9.664062 26.628906 9.648438 26.628906 C 9.648438 26.628906 9.621094 26.65625 9.589844 26.691406 M 9.355469 26.910156 L 9.292969 26.980469 L 9.359375 26.917969 C 9.425781 26.855469 9.4375 26.84375 9.425781 26.84375 C 9.421875 26.84375 9.390625 26.875 9.355469 26.910156 M 9.128906 27.125 L 9.066406 27.195312 L 9.132812 27.128906 C 9.199219 27.070312 9.210938 27.054688 9.199219 27.054688 C 9.195312 27.054688 9.164062 27.085938 9.128906 27.125 M 8.894531 27.347656 L 8.839844 27.410156 L 8.902344 27.351562 C 8.957031 27.300781 8.96875 27.285156 8.957031 27.285156 C 8.953125 27.285156 8.925781 27.3125 8.894531 27.347656 M 8.660156 27.570312 L 8.597656 27.640625 L 8.667969 27.574219 C 8.730469 27.515625 8.742188 27.5 8.730469 27.5 C 8.726562 27.5 8.695312 27.53125 8.660156 27.570312 M 8.433594 27.785156 L 8.371094 27.855469 L 8.441406 27.789062 C 8.503906 27.726562 8.515625 27.714844 8.503906 27.714844 C 8.5 27.714844 8.46875 27.746094 8.433594 27.785156 M 8.203125 28.003906 L 8.144531 28.066406 L 8.207031 28.011719 C 8.261719 27.957031 8.273438 27.945312 8.261719 27.945312 C 8.257812 27.945312 8.230469 27.972656 8.203125 28.003906 M 7.96875 28.222656 C 7.921875 28.269531 7.914062 28.289062 7.929688 28.296875 C 7.941406 28.304688 7.945312 28.304688 7.9375 28.296875 C 7.933594 28.289062 7.953125 28.253906 7.988281 28.21875 C 8.019531 28.1875 8.042969 28.15625 8.039062 28.15625 C 8.035156 28.15625 8.003906 28.1875 7.96875 28.222656 "/>
</g>
</svg>
